<?xml version="1.0" encoding="utf-8"?>
<!-- Generator: Adobe Illustrator 18.0.0, SVG Export Plug-In . SVG Version: 6.00 Build 0)  -->
<!DOCTYPE svg PUBLIC "-//W3C//DTD SVG 1.1//EN" "http://www.w3.org/Graphics/SVG/1.1/DTD/svg11.dtd">
<svg version="1.1" id="圖層_1" xmlns="http://www.w3.org/2000/svg" xmlns:xlink="http://www.w3.org/1999/xlink" x="0px" y="0px"
	 viewBox="0 0 59.3 11.3" enable-background="new 0 0 59.3 11.3" xml:space="preserve">
<g>
	<path fill="#FFFFFF" d="M0.1,1.2h2.5V0h2.2v1.2h1.5V0h2.3v1.2h2.5v2.3H8.7v0.7L10,4.8c-0.6,1-1.4,2-2.2,2.8
		c1.2,0.6,2.3,0.9,3.6,1.1l-1.5,2.5c-1.2-0.3-2.8-1-4.1-1.8c-1.2,0.7-2.8,1.3-4.2,1.8L0,9.2c1.4-0.4,2.6-0.9,3.6-1.5
		C2.8,6.9,2.1,5.9,1.5,4.8l1-0.6l0.2-0.1V3.4H0.1V1.2z M4.2,4.6C4.6,5.1,5,5.7,5.6,6.3C6.4,5.6,6.9,5,7.1,4.5H6.3V3.4H4.8v1.1H4.2z"
		/>
	<path fill="#FFFFFF" d="M22.5,6.2h-7.7v2.3c0,0.3,0.2,0.4,0.5,0.4l4.5,0c0.6,0,0.8-0.3,0.9-0.7V6.9l2.4,0.7c0,0.8-0.1,1.7-0.2,2.3
		c-0.4,0.9-1.3,1.3-2.7,1.3l-6.1,0c-1,0-1.6-0.6-1.6-1.6V0.2h10.1V6.2z M14.8,4h1.5V2.6h-1.5V4z M18.7,4h1.4V2.6h-1.4V4z"/>
	<path fill="#FFFFFF" d="M35.3,0v2.3H32V3h2.9v8.3h-2.3v-0.3h-6.2v0.3h-2.2V3h2.9V2.3h-3V0H35.3z M27.1,5.1h-0.6v2
		C26.8,6.6,27,5.9,27.1,5.1z M28,8.7c-0.5-0.5-1.1-0.9-1.6-1.3v1.3L28,8.7z M29.2,5.1c0,1.4-0.2,2.4-0.9,3.6h4.4V8.1l-2.2,0
		c-0.4,0-0.6-0.2-0.7-0.5V5.1H29.2z M29.3,2.3V3h0.5V2.3H29.3z M32,5.1l0,0.6c0,0.1,0.1,0.1,0.1,0.2h0.6V5.1H32z"/>
	<path fill="#FFFFFF" d="M37.9,1.4V0h2.2v0.5h1.5v1.2h-1.5V2h1.5l0,1.1C41.9,3,42.2,3,42.3,2.9c-0.2-0.2-0.4-0.5-0.5-0.7l0.7-0.5
		h-0.6V0.3h4.8V2c-0.2,0.3-0.5,0.7-1,1.1c0.5,0.2,1.1,0.4,1.6,0.5c-0.2,0.6-0.5,1.2-0.8,1.9c-0.9-0.3-1.7-0.7-2.5-1.2l-0.3,0.1
		c1,0.6,2.1,1.1,3.5,1.6c-0.2,0.6-0.5,1.2-0.7,1.8c-0.3-0.1-0.9-0.3-1.8-0.7v0.4l1.9,0.8l-0.6,1.1c0.6,0.1,1.1,0.1,1.3,0l-0.8,1.8
		c-1.4,0-2.9-0.3-4.5-1l0,0.6c-1.7,0.3-3.2,0.4-4.6,0.4l-0.3-1.8h1.1V7.8c-0.4,0.3-0.8,0.4-1.1,0.5c-0.3-0.5-0.6-1.1-0.9-1.8
		c1.4-0.4,3.2-1.2,5.1-2.8c0-0.1-0.1,0-0.2-0.1c-1.3,1.1-2.6,1.9-4.2,2.4c-0.2-0.4-0.5-0.9-0.9-1.4c0.6-0.1,1.1-0.3,1.5-0.4L37.5,4
		l-0.6,0.3L36.1,3C36.8,2.6,37.4,2,37.9,1.4z M38.8,3.5c0.3,0,0.5-0.2,0.6-0.4h-0.7L38.8,3.5z M42.9,6.9h-2.7v0.2h2.7V6.9z
		 M42.9,7.8h-2.7V8h2.7V7.8z M40.7,9.5c-0.2-0.3-0.3-0.4-0.3-0.6h-0.2v0.6H40.7z M42.7,5.8H41l-0.3,0.2H43L42.7,5.8z M41.9,5
		c0,0.1-0.2,0.2-0.4,0.4h0.8C42.2,5.3,42.1,5.2,41.9,5z M43.8,9.2C43.9,9.2,44,9.1,44,8.9h-1C43.2,9.1,43.5,9.2,43.8,9.2z M44,2.1
		c0.2,0,0.3-0.2,0.4-0.4h-0.9C43.6,1.9,43.8,2,44,2.1z"/>
	<path fill="#FFFFFF" d="M57.9,11.2c-0.1-0.3-0.2-0.5-0.2-0.7c-0.1,0.2-0.2,0.4-0.3,0.5c-0.2,0.2-0.5,0.3-0.9,0.3h-1.1
		c-0.4-0.1-0.5-0.3-0.5-0.7l0-0.6c-0.1,0.3-0.4,0.6-0.6,1l-0.6-0.5v0.7h-1.2V6.9l-1.8,0.2l-0.1-0.4c0,0.2-0.1,0.3-0.1,0.5h2v1h-0.7
		v0.2h0.6v0.8h-0.6v0.2l0.6-0.1l0.1,1.2L50.1,11L50,10.1c-0.1,0.4-0.3,0.8-0.5,1.2L48,9.5c0.5-1.1,0.8-2.5,0.8-4.2V0.4H53V0h2.3v0.3
		h3.9V2h-1.8v0.4h1.7v1.4h-1.7v0.3h1.4v2.4h-4.7V4.1h1.4V3.8H54V3.5h-0.3v5.4C53.9,8.6,54,8.3,54.1,8l0.8,0.4V8.1h0.6L55.7,8h-1.8
		V6.6h5.2V8h-1.7l0.3,0.3l-0.9,0.8l0.6,0.2l-0.1-0.4l1.2-0.8c0.4,0.6,0.7,1.3,1,2.2L57.9,11.2z M50.8,9.3h-0.3V8.5h0.3V8.3h-0.4
		c-0.1,0.6-0.2,1.1-0.3,1.5l0.7-0.1V9.3z M55.5,2h-4.9v0.2h3.7v0.2h1.2V2z M50.9,3.5h-0.3V6l0.3,0V3.5z M52.5,3.5h-0.4v0.4h0.4V3.5z
		 M52.5,4.5h-0.4v0.3h0.4V4.5z M52.5,5.5h-0.4v0.3l0.4-0.1V5.5z M55.5,5h-0.4v0.4h0.4V5z M56.6,9.1l-0.3-0.3l0,0.6
		c0,0.1,0,0.2,0.1,0.2c0.1,0,0.2,0,0.2-0.1V9.1z M56.7,5h-0.4v0.4h0.4V5z M57.8,5h-0.3v0.4h0.3V5z"/>
</g>
</svg>
